<mxfile host="app.diagrams.net" modified="2022-02-18T02:00:39.257Z" agent="5.0 (Macintosh; Intel Mac OS X 10_15_7) AppleWebKit/537.36 (KHTML, like Gecko) Chrome/97.0.4692.99 Safari/537.36" etag="9rhE5j9OTFpjNH8AYOX3" version="16.5.6" type="github">
  <diagram id="wBWZhu5586uAImdgM5rp" name="Page-1">
    <mxGraphModel dx="1080" dy="676" grid="1" gridSize="10" guides="1" tooltips="1" connect="1" arrows="1" fold="1" page="1" pageScale="1" pageWidth="827" pageHeight="1169" math="0" shadow="0">
      <root>
        <mxCell id="0" />
        <mxCell id="1" parent="0" />
        <mxCell id="BTBUEE3RdTzI_zjbIVaL-2" value="&lt;h1&gt;译者序&lt;/h1&gt;&lt;div&gt;好书的三个标准&lt;/div&gt;&lt;div&gt;（1）我们要看这本书有没有引导人动作的力量&lt;/div&gt;&lt;div&gt;（2）我们要看这本书有没有引导人思想的力量&lt;/div&gt;&lt;div&gt;（3）我们要看这本书有没有引导人产生新价值的力量&lt;/div&gt;" style="text;html=1;strokeColor=none;fillColor=none;spacing=5;spacingTop=-20;whiteSpace=wrap;overflow=hidden;rounded=0;" vertex="1" parent="1">
          <mxGeometry x="20" y="30" width="320" height="130" as="geometry" />
        </mxCell>
      </root>
    </mxGraphModel>
  </diagram>
</mxfile>
